<?xml version="1.0" encoding="iso-8859-1"?>
<!-- Uploaded to: SVG Repo, www.svgrepo.com, Generator: SVG Repo Mixer Tools -->
<svg height="800px" width="800px" version="1.1" id="Layer_1" xmlns="http://www.w3.org/2000/svg" xmlns:xlink="http://www.w3.org/1999/xlink" 
	 viewBox="0 0 511.999 511.999" xml:space="preserve">
<circle style="fill:#FFD630;" cx="255.996" cy="255.915" r="255.915"/>
<path style="fill:#F5BE18;" d="M511.917,251.469l-102.334-101.84l-1.484,71.189l-66.74-67.07L227.656,258.555L116.259,147.157
	l0.329,8.57l-8.569-8.57l0.329,7.086l-7.086-7.086l0.329,8.899l-8.569-8.57l-3.295,41.856l-0.988,7.415l15.16,13.018l0.165,156.055
	l3.625,3.131l-0.165,0.165l142.872,142.872c1.813,0,3.791,0,5.603,0c141.389,0,255.917-114.528,255.917-255.917
	C511.917,254.599,511.917,253.116,511.917,251.469z"/>
<path style="fill:#FFFFFF;" d="M402.333,147.816l1.483,107.772v0.988h-2.637c-0.988,0-1.648,0.659-1.648,1.484l0,0
	c0,0.824,0.824,1.483,1.648,1.483h2.472l-4.449,91.623c0,0-0.659,9.887,11.535,12.524c0,0,9.064-2.307,10.546-11.7
	c1.319-8.239-3.791-76.463-4.944-92.447h3.46c0.988,0,1.648-0.659,1.648-1.483l0,0c0-0.824-0.824-1.484-1.648-1.484h-3.625v-0.659
	c0,0-1.813-8.404,10.711-12.359c0,0-6.427-67.728-11.371-83.053s-12.689-16.15-13.018-12.689H402.333z"/>
<path style="fill:#E84F4F;" d="M403.816,256.577h-2.637c-0.988,0-1.648,0.659-1.648,1.484l0,0c0,0.824,0.824,1.483,1.648,1.483
	h2.472l-4.449,91.623c0,0-0.659,9.887,11.535,12.524c0,0,9.064-2.307,10.546-11.7c1.319-8.239-3.791-76.463-4.944-92.447h3.46
	c0.988,0,1.648-0.659,1.648-1.483l0,0c0-0.824-0.824-1.484-1.648-1.484h-3.625H403.98H403.816z"/>
<path style="fill:#FFFFFF;" d="M108.184,147.157c0,0,2.307,36.748,2.307,44.657h4.614l-0.494-44.163c0,0,0.494-1.648,1.648-0.329
	c0,0,5.932,40.538,5.932,45.647c0,0,0.988,10.052-0.329,13.678c-1.319,3.625-13.843,11.7-13.843,14.666l-0.494,21.258
	c2.637,0.824,4.449,2.801,4.449,4.779c0,2.142-1.483,3.791-4.285,4.779l4.12,7.415c0,0,2.307,73.496,3.625,86.844
	c-2.801,14.172-9.393,19.775-10.876,19.775c-3.295-0.165-9.723-10.546-10.876-18.951l4.285-87.338l3.625-7.415
	c0,0-0.494-0.165-1.153-0.494c-1.978-0.988-3.295-2.637-3.295-4.449c0-1.978,1.648-3.791,3.955-4.614
	c0-1.483-0.329-20.929-0.494-21.258c-0.824-4.779-11.535-10.052-13.678-13.183c-2.142-3.295-0.988-15.325-0.988-15.325
	c0-4.944,5.932-45.647,5.932-45.647c1.153-1.319,1.648,0.329,1.648,0.329l-0.494,44.493h4.12c0-7.58,3.131-44.822,3.131-44.822
	c1.153-1.319,1.648,0,1.648,0l1.978,44.657h2.142l0.988-44.657c0,0,0.659-1.319,1.648,0L108.184,147.157z"/>
<path style="fill:#E84F4F;" d="M107.69,251.963l3.955,7.251c0,0,2.307,73.496,3.625,86.844
	c-2.801,14.172-9.393,19.775-10.876,19.775c-3.295-0.165-9.723-10.546-10.876-18.951l4.285-87.338l3.625-7.415h6.262L107.69,251.963
	L107.69,251.963z"/>
<circle style="fill:#FF873D;" cx="258.307" cy="255.915" r="131.834"/>
<circle style="fill:#FFFFFF;" cx="258.307" cy="255.915" r="125.072"/>
<circle style="fill:#FFE8D1;" cx="258.307" cy="255.915" r="98.05"/>
</svg>