<!DOCTYPE svg PUBLIC "-//W3C//DTD SVG 1.1//EN" "http://www.w3.org/Graphics/SVG/1.1/DTD/svg11.dtd">
<!-- Uploaded to: SVG Repo, www.svgrepo.com, Transformed by: SVG Repo Mixer Tools -->
<svg width="64px" height="64px" viewBox="0 0 64 64" xmlns="http://www.w3.org/2000/svg" fill="none" stroke="#000000" stroke-width="1.6">
<g id="SVGRepo_bgCarrier" stroke-width="0"/>
<g id="SVGRepo_tracerCarrier" stroke-linecap="round" stroke-linejoin="round" stroke="#969696" stroke-width="1.92">
<ellipse cx="32" cy="24" rx="12" ry="16"/>
<path d="M22 33.46s-10.09 2.68-12 8A33 33 0 0 0 8 56h48a33 33 0 0 0-1.94-14.54c-1.93-5.32-12-8-12-8"/>
</g>
<g id="SVGRepo_iconCarrier">
<ellipse cx="32" cy="24" rx="12" ry="16"/>
<path d="M22 33.46s-10.09 2.68-12 8A33 33 0 0 0 8 56h48a33 33 0 0 0-1.94-14.54c-1.93-5.32-12-8-12-8"/>
</g>
</svg>